<svg width="70" height="69" viewBox="0 0 70 69" fill="none" xmlns="http://www.w3.org/2000/svg">
<path d="M61.4632 25.8477L57.4964 20.7658C57.3929 20.6345 57.3215 20.4808 57.288 20.317C57.2545 20.1532 57.2598 19.9838 57.3034 19.8224L59.126 13.7328C59.4042 12.7835 59.4131 11.7755 59.1519 10.8214C58.8906 9.86731 58.3694 9.00453 57.6465 8.32934C56.942 7.66102 56.0662 7.20102 55.1161 7.00041C54.166 6.7998 53.179 6.86643 52.2645 7.1929L46.3678 9.33713C46.225 9.38584 46.0726 9.39958 45.9233 9.3772C45.7741 9.35481 45.6324 9.29695 45.5102 9.20847L40.2997 5.4132C39.5096 4.82811 38.569 4.48053 37.5883 4.41128C36.6076 4.34202 35.6275 4.55396 34.7631 5.02221C33.8986 5.49046 33.1857 6.19559 32.7079 7.05484C32.2302 7.91409 32.0074 8.89179 32.0659 9.87319L32.3661 16.3059C32.38 16.4563 32.3559 16.6078 32.2959 16.7464C32.236 16.885 32.1421 17.0064 32.023 17.0992L26.9841 20.8087C26.2251 21.3881 25.6385 22.1634 25.2871 23.0512C24.9358 23.939 24.833 24.9058 24.9899 25.8477C25.1472 26.8404 25.5805 27.7688 26.2402 28.5271C26.8999 29.2854 27.7595 29.8429 28.7209 30.1361L30.4577 30.6507L15.9627 46.8182C15.5846 47.2447 15.3913 47.804 15.4255 48.373C15.4597 48.942 15.7185 49.4741 16.145 49.8523C16.5715 50.2304 17.1308 50.4237 17.6998 50.3895C18.2688 50.3553 18.8009 50.0965 19.1791 49.67L38.4771 28.0133L40.0424 29.45L12.9394 59.8122C12.7568 60.0138 12.5032 60.1368 12.2318 60.1553C12.0973 60.1649 11.9623 60.145 11.8363 60.0968C11.7104 60.0487 11.5965 59.9735 11.5028 59.8765C11.2985 59.6715 11.1838 59.394 11.1838 59.1046C11.1838 58.8152 11.2985 58.5376 11.5028 58.3327L14.3546 55.1592C14.5432 54.948 14.6885 54.7017 14.7819 54.4344C14.8754 54.1671 14.9153 53.884 14.8994 53.6013C14.8835 53.3185 14.812 53.0417 14.6891 52.7866C14.5662 52.5315 14.3942 52.3031 14.183 52.1144C13.9719 51.9257 13.7256 51.7805 13.4583 51.687C13.191 51.5936 12.9078 51.5536 12.6251 51.5696C12.3424 51.5855 12.0655 51.657 11.8104 51.7799C11.5553 51.9028 11.3269 52.0748 11.1382 52.2859L8.22209 55.4594C7.28176 56.5226 6.79366 57.911 6.86174 59.3288C6.92983 60.7465 7.54872 62.0817 8.58661 63.05C9.56367 63.9464 10.8415 64.4438 12.1675 64.4437H12.4248C13.1298 64.406 13.8205 64.2293 14.4571 63.9239C15.0937 63.6185 15.6636 63.1903 16.1343 62.664L37.598 38.713C37.9092 39.6475 38.4758 40.4762 39.2337 41.1053C39.9916 41.7344 40.9106 42.1387 41.8864 42.2724C42.1075 42.293 42.33 42.293 42.5511 42.2724C43.4016 42.2709 44.2385 42.0585 44.9869 41.6544C45.7353 41.2503 46.3718 40.667 46.8396 39.9567L50.2918 34.6819C50.3677 34.5631 50.4723 34.4655 50.596 34.398C50.7197 34.3305 50.8585 34.2954 50.9994 34.2959H57.3248C58.2895 34.3037 59.2366 34.0379 60.0563 33.5294C60.876 33.0208 61.5349 32.2904 61.9564 31.4226C62.403 30.54 62.5935 29.55 62.5063 28.5647C62.4192 27.5794 62.0578 26.6382 61.4632 25.8477ZM41.4361 24.8184L43.6876 22.2882C43.7748 22.1846 43.8829 22.1005 44.0048 22.0414C44.1267 21.9822 44.2597 21.9495 44.3952 21.9452C44.5295 21.9369 44.6641 21.9575 44.7899 22.0056C44.9156 22.0537 45.0296 22.1281 45.1242 22.2239C45.3234 22.4315 45.4346 22.7081 45.4346 22.9958C45.4346 23.2836 45.3234 23.5601 45.1242 23.7678L42.98 26.2551L41.4361 24.8184ZM58.3112 29.5786C58.2435 29.7247 58.1341 29.8475 57.9967 29.9314C57.8593 30.0154 57.7001 30.0568 57.5393 30.0503H51.1066C50.2557 30.05 49.4181 30.2615 48.6694 30.6658C47.9208 31.0701 47.2845 31.6544 46.8181 32.3661L43.3016 37.6409C43.2153 37.78 43.0901 37.8908 42.9414 37.9594C42.7928 38.028 42.6272 38.0514 42.4654 38.0269C42.2735 37.9996 42.0932 37.9187 41.9453 37.7936C41.7973 37.6684 41.6877 37.504 41.6291 37.3193L40.8358 35.0249L48.362 26.641C49.0777 25.8499 49.5421 24.8638 49.6962 23.8082C49.8504 22.7525 49.6873 21.6749 49.2278 20.7121C48.7682 19.7493 48.0329 18.9448 47.1152 18.4008C46.1974 17.8568 45.1387 17.5978 44.0735 17.6567C42.697 17.7559 41.4129 18.3864 40.4927 19.415L33.5454 27.1556C33.431 27.0786 33.3089 27.0139 33.1809 26.9627L29.9645 25.9978C29.7727 25.9376 29.6011 25.8257 29.4687 25.6744C29.3363 25.5231 29.2482 25.3382 29.2141 25.1401C29.1833 24.9697 29.1989 24.7943 29.2593 24.6321C29.3196 24.4698 29.4225 24.3268 29.5571 24.218L34.5746 20.4871C35.2734 19.9844 35.8356 19.3151 36.2101 18.54C36.5845 17.7648 36.7594 16.9084 36.7188 16.0486L36.3972 9.61588C36.382 9.44226 36.4187 9.26802 36.5027 9.11531C36.5867 8.96259 36.7141 8.83829 36.8689 8.75819C37.0173 8.66719 37.188 8.61903 37.3621 8.61903C37.5362 8.61903 37.7069 8.66719 37.8553 8.75819L43.0443 12.532C43.7349 13.0328 44.5375 13.3571 45.3821 13.4767C46.2267 13.5963 47.0878 13.5075 47.8902 13.2182L53.7869 11.074C53.9559 11.0097 54.1405 10.9978 54.3164 11.0398C54.4923 11.0819 54.6515 11.176 54.7732 11.3098C54.923 11.4393 55.0314 11.61 55.0848 11.8007C55.1382 11.9913 55.1342 12.1935 55.0734 12.3819L53.2723 18.4501C52.9845 19.2744 52.9025 20.1565 53.0333 21.0197C53.1641 21.883 53.5037 22.7012 54.0227 23.4032L57.9895 28.4851C58.1473 28.6136 58.2624 28.7868 58.3198 28.982C58.3772 29.1772 58.3742 29.3852 58.3112 29.5786Z" fill="white"/>
</svg>
