<svg width="186" height="65" viewBox="0 0 186 65" fill="none" xmlns="http://www.w3.org/2000/svg">
<rect x="0.773438" y="0.44873" width="184.747" height="64" rx="10.6667" fill="#F5C350" fill-opacity="0.1"/>
<path d="M35.4395 31.1151C35.4395 30.7615 35.5799 30.4223 35.83 30.1723C36.08 29.9223 36.4192 29.7817 36.7728 29.7817C37.1264 29.7817 37.4655 29.9223 37.7156 30.1723C37.9656 30.4223 38.1061 30.7615 38.1061 31.1151V36.4484C38.1061 36.802 37.9656 37.1412 37.7156 37.3912C37.4655 37.6412 37.1264 37.7817 36.7728 37.7817C36.4192 37.7817 36.08 37.6412 35.83 37.3912C35.5799 37.1412 35.4395 36.802 35.4395 36.4484V31.1151ZM54.1061 31.1151C54.1061 30.7615 54.2467 30.4223 54.4967 30.1723C54.7467 29.9223 55.0859 29.7817 55.4395 29.7817C55.7931 29.7817 56.1323 29.9223 56.3823 30.1723C56.6323 30.4223 56.7728 30.7615 56.7728 31.1151V36.4484C56.7728 36.802 56.6323 37.1412 56.3823 37.3912C56.1323 37.6412 55.7931 37.7817 55.4395 37.7817C55.0859 37.7817 54.7467 37.6412 54.4967 37.3912C54.2467 37.1412 54.1061 36.802 54.1061 36.4484V31.1151ZM39.4395 29.7817H52.7728V39.1151C52.7728 39.4687 52.6323 39.8079 52.3823 40.0579C52.1323 40.3079 51.7931 40.4484 51.4395 40.4484H50.1061V43.1151C50.1061 43.4687 49.9656 43.8079 49.7156 44.0579C49.4656 44.3079 49.1264 44.4484 48.7728 44.4484C48.4192 44.4484 48.08 44.3079 47.83 44.0579C47.58 43.8079 47.4395 43.4687 47.4395 43.1151V40.4484H44.7728V43.1151C44.7728 43.4687 44.6323 43.8079 44.3823 44.0579C44.1323 44.3079 43.7931 44.4484 43.4395 44.4484C43.0858 44.4484 42.7467 44.3079 42.4966 44.0579C42.2466 43.8079 42.1061 43.4687 42.1061 43.1151V40.4484H40.7728C40.4192 40.4484 40.08 40.3079 39.83 40.0579C39.5799 39.8079 39.4395 39.4687 39.4395 39.1151V29.7817Z" fill="#F5C350"/>
<path fill-rule="evenodd" clip-rule="evenodd" d="M41.8084 19.8521C41.9665 19.7729 42.1496 19.7598 42.3173 19.8155C42.4851 19.8713 42.6239 19.9914 42.7031 20.1495L43.7364 22.2161C44.4936 21.9281 45.297 21.7808 46.1071 21.7815C46.9171 21.7804 47.7206 21.9272 48.4778 22.2148L49.5111 20.1495C49.5499 20.0705 49.6039 20 49.6702 19.942C49.7363 19.8841 49.8134 19.8398 49.8967 19.8117C49.98 19.7836 50.0682 19.7723 50.156 19.7785C50.2438 19.7846 50.3294 19.8081 50.408 19.8475C50.4867 19.8869 50.5568 19.9415 50.6143 20.0081C50.6718 20.0748 50.7155 20.1521 50.7428 20.2357C50.7703 20.3193 50.7808 20.4075 50.774 20.4952C50.7672 20.583 50.7431 20.6684 50.7031 20.7468L49.6698 22.8135C50.6208 23.4142 51.4043 24.246 51.9471 25.2313C52.4898 26.2166 52.7742 27.3232 52.7738 28.4481H39.4404C39.4404 26.0761 40.6791 23.9948 42.5444 22.8121L41.5111 20.7455C41.4323 20.5875 41.4194 20.4048 41.4751 20.2373C41.5308 20.0699 41.6507 19.9314 41.8084 19.8521ZM43.4404 25.1148C43.4404 25.2916 43.3702 25.4612 43.2452 25.5862C43.1201 25.7112 42.9506 25.7815 42.7738 25.7815C42.5969 25.7815 42.4274 25.7112 42.3024 25.5862C42.1773 25.4612 42.1071 25.2916 42.1071 25.1148C42.1071 24.938 42.1773 24.7684 42.3024 24.6434C42.4274 24.5184 42.5969 24.4481 42.7738 24.4481C42.9506 24.4481 43.1201 24.5184 43.2452 24.6434C43.3702 24.7684 43.4404 24.938 43.4404 25.1148ZM49.4404 25.7815C49.6172 25.7815 49.7868 25.7112 49.9119 25.5862C50.0368 25.4612 50.1071 25.2916 50.1071 25.1148C50.1071 24.938 50.0368 24.7684 49.9119 24.6434C49.7868 24.5184 49.6172 24.4481 49.4404 24.4481C49.2636 24.4481 49.094 24.5184 48.969 24.6434C48.844 24.7684 48.7738 24.938 48.7738 25.1148C48.7738 25.2916 48.844 25.4612 48.969 25.5862C49.094 25.7112 49.2636 25.7815 49.4404 25.7815Z" fill="#F5C350"/>
<path d="M75.7832 38.1157H73.4149L78.7365 23.3278H81.3143L86.6359 38.1157H84.2675L80.0867 26.0139H79.9712L75.7832 38.1157ZM76.1804 32.3248H83.8631V34.2021H76.1804V32.3248ZM91.3971 31.5305V38.1157H89.2381V27.0248H91.3104V28.83H91.4476C91.7027 28.2427 92.1023 27.7709 92.6462 27.4147C93.195 27.0585 93.8858 26.8804 94.7186 26.8804C95.4743 26.8804 96.1362 27.0393 96.7042 27.357C97.2723 27.6699 97.7127 28.1368 98.0256 28.7578C98.3385 29.3787 98.4949 30.1465 98.4949 31.0612V38.1157H96.336V31.3211C96.336 30.5172 96.1266 29.889 95.7078 29.4365C95.289 28.9792 94.7137 28.7505 93.982 28.7505C93.4814 28.7505 93.0361 28.8589 92.6462 29.0755C92.2611 29.2921 91.9555 29.6098 91.7292 30.0286C91.5078 30.4426 91.3971 30.9432 91.3971 31.5305ZM106.182 38.3323C105.287 38.3323 104.488 38.1037 103.785 37.6464C103.087 37.1843 102.538 36.5272 102.139 35.6751C101.744 34.8183 101.547 33.7906 101.547 32.5919C101.547 31.3933 101.746 30.368 102.146 29.5159C102.55 28.6639 103.104 28.0116 103.807 27.5591C104.51 27.1066 105.306 26.8804 106.197 26.8804C106.885 26.8804 107.439 26.9959 107.857 27.227C108.281 27.4532 108.608 27.718 108.839 28.0213C109.075 28.3245 109.258 28.5917 109.388 28.8228H109.518V23.3278H111.677V38.1157H109.569V36.39H109.388C109.258 36.6259 109.071 36.8954 108.825 37.1987C108.584 37.502 108.252 37.7667 107.829 37.993C107.405 38.2192 106.856 38.3323 106.182 38.3323ZM106.659 36.4911C107.28 36.4911 107.805 36.3274 108.233 36.0001C108.666 35.6679 108.994 35.2082 109.215 34.6209C109.441 34.0337 109.554 33.3501 109.554 32.5703C109.554 31.8001 109.444 31.1261 109.222 30.5485C109.001 29.9708 108.676 29.5207 108.247 29.1982C107.819 28.8757 107.289 28.7144 106.659 28.7144C106.009 28.7144 105.467 28.8829 105.034 29.2199C104.601 29.5569 104.274 30.0166 104.052 30.599C103.836 31.1815 103.727 31.8386 103.727 32.5703C103.727 33.3116 103.838 33.9783 104.059 34.5704C104.281 35.1625 104.608 35.6318 105.041 35.9784C105.479 36.3202 106.019 36.4911 106.659 36.4911ZM115.399 38.1157V27.0248H117.485V28.7866H117.601C117.803 28.1897 118.159 27.7204 118.67 27.3786C119.185 27.032 119.767 26.8587 120.417 26.8587C120.552 26.8587 120.711 26.8636 120.894 26.8732C121.081 26.8828 121.228 26.8948 121.334 26.9093V28.9744C121.247 28.9503 121.093 28.9238 120.872 28.895C120.65 28.8613 120.429 28.8444 120.208 28.8444C119.697 28.8444 119.242 28.9527 118.843 29.1693C118.448 29.3811 118.135 29.6772 117.904 30.0575C117.673 30.433 117.558 30.8614 117.558 31.3428V38.1157H115.399ZM128.117 38.3396C127.077 38.3396 126.17 38.1013 125.395 37.6247C124.62 37.1482 124.018 36.4815 123.59 35.6246C123.161 34.7678 122.947 33.7665 122.947 32.6208C122.947 31.4703 123.161 30.4642 123.59 29.6026C124.018 28.7409 124.62 28.0718 125.395 27.5952C126.17 27.1187 127.077 26.8804 128.117 26.8804C129.157 26.8804 130.064 27.1187 130.839 27.5952C131.614 28.0718 132.216 28.7409 132.644 29.6026C133.073 30.4642 133.287 31.4703 133.287 32.6208C133.287 33.7665 133.073 34.7678 132.644 35.6246C132.216 36.4815 131.614 37.1482 130.839 37.6247C130.064 38.1013 129.157 38.3396 128.117 38.3396ZM128.124 36.5272C128.798 36.5272 129.356 36.3491 129.799 35.9929C130.242 35.6366 130.57 35.1625 130.781 34.5704C130.998 33.9783 131.106 33.326 131.106 32.6136C131.106 31.906 130.998 31.2561 130.781 30.664C130.57 30.0671 130.242 29.5881 129.799 29.2271C129.356 28.8661 128.798 28.6856 128.124 28.6856C127.445 28.6856 126.882 28.8661 126.435 29.2271C125.992 29.5881 125.662 30.0671 125.445 30.664C125.234 31.2561 125.128 31.906 125.128 32.6136C125.128 33.326 125.234 33.9783 125.445 34.5704C125.662 35.1625 125.992 35.6366 126.435 35.9929C126.882 36.3491 127.445 36.5272 128.124 36.5272ZM136.337 38.1157V27.0248H138.496V38.1157H136.337ZM137.427 25.3135C137.052 25.3135 136.729 25.1884 136.46 24.938C136.195 24.6829 136.062 24.3796 136.062 24.0282C136.062 23.672 136.195 23.3688 136.46 23.1184C136.729 22.8633 137.052 22.7358 137.427 22.7358C137.803 22.7358 138.123 22.8633 138.387 23.1184C138.657 23.3688 138.792 23.672 138.792 24.0282C138.792 24.3796 138.657 24.6829 138.387 24.938C138.123 25.1884 137.803 25.3135 137.427 25.3135ZM146.192 38.3323C145.297 38.3323 144.498 38.1037 143.795 37.6464C143.097 37.1843 142.548 36.5272 142.149 35.6751C141.754 34.8183 141.557 33.7906 141.557 32.5919C141.557 31.3933 141.756 30.368 142.156 29.5159C142.56 28.6639 143.114 28.0116 143.817 27.5591C144.519 27.1066 145.316 26.8804 146.207 26.8804C146.895 26.8804 147.449 26.9959 147.867 27.227C148.291 27.4532 148.618 27.718 148.849 28.0213C149.085 28.3245 149.268 28.5917 149.398 28.8228H149.528V23.3278H151.687V38.1157H149.579V36.39H149.398C149.268 36.6259 149.08 36.8954 148.835 37.1987C148.594 37.502 148.262 37.7667 147.838 37.993C147.415 38.2192 146.866 38.3323 146.192 38.3323ZM146.669 36.4911C147.29 36.4911 147.814 36.3274 148.243 36.0001C148.676 35.6679 149.003 35.2082 149.225 34.6209C149.451 34.0337 149.564 33.3501 149.564 32.5703C149.564 31.8001 149.453 31.1261 149.232 30.5485C149.011 29.9708 148.686 29.5207 148.257 29.1982C147.829 28.8757 147.299 28.7144 146.669 28.7144C146.019 28.7144 145.477 28.8829 145.044 29.2199C144.611 29.5569 144.284 30.0166 144.062 30.599C143.845 31.1815 143.737 31.8386 143.737 32.5703C143.737 33.3116 143.848 33.9783 144.069 34.5704C144.291 35.1625 144.618 35.6318 145.051 35.9784C145.489 36.3202 146.028 36.4911 146.669 36.4911Z" fill="#F5C350"/>
</svg>
