<svg width="73" height="31" viewBox="0 0 73 31" fill="none" xmlns="http://www.w3.org/2000/svg">
<path d="M0.87223 27.0942C0.87223 27.0396 0.915446 26.9895 0.976858 26.9895H2.20283C2.86472 26.9895 3.34237 27.4285 3.34237 28.0017C3.34237 28.4225 3.03076 28.725 2.77374 28.8728C3.06488 28.9934 3.45837 29.2618 3.45837 29.7644C3.45837 30.3786 2.95343 30.8221 2.26424 30.8221H0.974583C0.915446 30.8221 0.869955 30.7721 0.869955 30.7175V27.0919L0.87223 27.0942ZM2.25742 30.3194C2.59178 30.3194 2.8488 30.0624 2.8488 29.7235C2.8488 29.3846 2.53036 29.148 2.17554 29.148H1.42494V30.3194H2.25742ZM2.16871 28.6545C2.51899 28.6545 2.7328 28.3975 2.7328 28.0676C2.7328 27.7378 2.51899 27.5036 2.16871 27.5036H1.42949V28.6545H2.16871Z" fill="white"/>
<path d="M5.0938 27.0943C5.0938 27.0397 5.13702 26.9897 5.19843 26.9897H6.68825C7.34559 26.9897 7.88238 27.5105 7.88238 28.161C7.88238 28.6637 7.54802 29.08 7.07265 29.2733L7.82324 30.6653C7.86191 30.7358 7.82324 30.8245 7.72999 30.8245H7.30237C7.25916 30.8245 7.22504 30.7972 7.21367 30.7745L6.48582 29.3233H5.65789V30.7199C5.65789 30.7745 5.60785 30.8245 5.55326 30.8245H5.19616C5.13702 30.8245 5.09153 30.7745 5.09153 30.7199V27.0943H5.0938ZM6.64276 28.8525C6.99759 28.8525 7.31147 28.5523 7.31147 28.1724C7.31147 27.8176 6.99986 27.5196 6.64276 27.5196H5.66699V28.8502H6.64276V28.8525Z" fill="white"/>
<path d="M9.031 30.6811L10.7119 26.9941C10.7278 26.9623 10.7778 26.935 10.8051 26.935H10.8597C10.887 26.935 10.9371 26.9623 10.953 26.9941L12.6225 30.6811C12.6543 30.7516 12.6111 30.8244 12.5292 30.8244H12.1835C12.1175 30.8244 12.0789 30.7926 12.0584 30.7425L11.7195 29.9919H9.92944C9.82026 30.2444 9.70426 30.4901 9.59508 30.7425C9.57916 30.7812 9.53594 30.8244 9.46998 30.8244H9.12425C9.04237 30.8244 8.99915 30.7539 9.031 30.6811ZM11.5125 29.5211L10.8392 28.0199H10.812L10.1432 29.5211H11.5125Z" fill="white"/>
<path d="M13.9872 27.0328C13.9872 26.9782 14.0372 26.935 14.0918 26.935H14.2283L16.6052 29.6849H16.6097V27.0942C16.6097 27.0396 16.6529 26.9896 16.7144 26.9896H17.0646C17.1192 26.9896 17.1693 27.0396 17.1693 27.0942V30.7812C17.1693 30.8358 17.1192 30.879 17.0646 30.879H16.9213L14.5445 28.054H14.5399V30.7221C14.5399 30.7766 14.4967 30.8267 14.4353 30.8267H14.0895C14.035 30.8267 13.9849 30.7766 13.9849 30.7221V27.035L13.9872 27.0328Z" fill="white"/>
<path d="M19.0482 27.0943C19.0482 27.0397 19.0914 26.9897 19.146 26.9897H20.4061C21.4637 26.9897 22.328 27.8494 22.328 28.9003C22.328 29.9511 21.4637 30.8222 20.4061 30.8222H19.146C19.0914 30.8222 19.0482 30.7722 19.0482 30.7176V27.092V27.0943ZM20.3287 30.3037C21.1339 30.3037 21.7207 29.7123 21.7207 28.9025C21.7207 28.0928 21.1339 27.5105 20.3287 27.5105H19.6054V30.3037H20.3287Z" fill="white"/>
<path d="M25.4326 30.6811L27.1135 26.9941C27.1294 26.9623 27.1795 26.935 27.2068 26.935H27.2614C27.2887 26.935 27.3387 26.9623 27.3546 26.9941L29.0241 30.6811C29.056 30.7516 29.0128 30.8244 28.9309 30.8244H28.5851C28.5192 30.8244 28.4805 30.7926 28.46 30.7425L28.1211 29.9919H26.3311C26.2219 30.2444 26.1059 30.4901 25.9967 30.7425C25.9808 30.7812 25.9376 30.8244 25.8716 30.8244H25.5259C25.444 30.8244 25.4008 30.7539 25.4326 30.6811ZM27.9142 29.5211L27.2409 28.0199H27.2136L26.5449 29.5211H27.9142Z" fill="white"/>
<path d="M32.0653 26.9349C32.618 26.9349 33.0183 27.1214 33.3913 27.4444C33.4414 27.4876 33.4414 27.5536 33.3959 27.5968L33.1548 27.8425C33.1161 27.8925 33.0661 27.8925 33.0183 27.8425C32.7613 27.6173 32.411 27.4763 32.0698 27.4763C31.2874 27.4763 30.696 28.1336 30.696 28.9001C30.696 29.6666 31.2919 30.3194 32.0766 30.3194C32.477 30.3194 32.7567 30.1602 33.0183 29.9578C33.0683 29.9191 33.1161 29.9259 33.1502 29.9532L33.4027 30.1989C33.4459 30.2375 33.4345 30.3081 33.3981 30.3467C33.0251 30.7084 32.5543 30.879 32.0675 30.879C30.9712 30.879 30.091 30.0078 30.091 28.9138C30.091 27.8197 30.9735 26.9372 32.0675 26.9372L32.0653 26.9349Z" fill="white"/>
<path d="M35.52 27.5038H34.6284C34.5692 27.5038 34.5237 27.4537 34.5237 27.3992V27.0921C34.5237 27.0375 34.5669 26.9875 34.6284 26.9875H36.9825C37.0416 26.9875 37.0871 27.0375 37.0871 27.0921V27.3992C37.0871 27.4537 37.0439 27.5038 36.9825 27.5038H36.0909V30.7177C36.0909 30.7723 36.0408 30.8223 35.9863 30.8223H35.6246C35.57 30.8223 35.52 30.7723 35.52 30.7177V27.5038Z" fill="white"/>
<path d="M38.4953 27.0943C38.4953 27.0397 38.5454 26.9897 38.6 26.9897H38.9616C39.0162 26.9897 39.0662 27.0397 39.0662 27.0943V30.7199C39.0662 30.7745 39.0162 30.8245 38.9616 30.8245H38.6C38.5454 30.8245 38.4953 30.7745 38.4953 30.7199V27.0943Z" fill="white"/>
<path d="M40.433 27.133C40.4011 27.0625 40.4443 26.9897 40.5262 26.9897H40.9152C40.9584 26.9897 40.9971 27.0215 41.0084 27.0488L42.2139 29.76H42.2458L43.4513 27.0488C43.4627 27.0215 43.4945 26.9897 43.5445 26.9897H43.9335C44.0154 26.9897 44.0586 27.0602 44.0267 27.133L42.3459 30.8177C42.3299 30.8495 42.2958 30.8791 42.2526 30.8791H42.198C42.1593 30.8791 42.1207 30.8518 42.1048 30.8177L40.4352 27.133H40.433Z" fill="white"/>
<path d="M44.6319 30.6811L46.3128 26.9941C46.3287 26.9623 46.3787 26.935 46.406 26.935H46.4606C46.4879 26.935 46.538 26.9623 46.5539 26.9941L48.2234 30.6811C48.2552 30.7516 48.212 30.8244 48.1301 30.8244H47.7844C47.7184 30.8244 47.6798 30.7926 47.6593 30.7425L47.3204 29.9919H45.5303C45.4212 30.2444 45.3052 30.4901 45.196 30.7425C45.1801 30.7812 45.1368 30.8244 45.0709 30.8244H44.7252C44.6433 30.8244 44.6001 30.7539 44.6319 30.6811ZM47.1134 29.5211L46.4402 28.0199H46.4129L45.7441 29.5211H47.1134Z" fill="white"/>
<path d="M49.9133 27.5038H49.0217C48.9626 27.5038 48.9171 27.4537 48.9171 27.3992V27.0921C48.9171 27.0375 48.9603 26.9875 49.0217 26.9875H51.3758C51.435 26.9875 51.4805 27.0375 51.4805 27.0921V27.3992C51.4805 27.4537 51.4373 27.5038 51.3758 27.5038H50.4842V30.7177C50.4842 30.7723 50.4342 30.8223 50.3796 30.8223H50.018C49.9634 30.8223 49.9133 30.7723 49.9133 30.7177V27.5038Z" fill="white"/>
<path d="M52.8863 27.0943C52.8863 27.0397 52.9364 26.9897 52.991 26.9897H53.3526C53.4072 26.9897 53.4572 27.0397 53.4572 27.0943V30.7199C53.4572 30.7745 53.4072 30.8245 53.3526 30.8245H52.991C52.9364 30.8245 52.8863 30.7745 52.8863 30.7199V27.0943Z" fill="white"/>
<path d="M57.021 26.935C58.1173 26.935 58.993 27.8175 58.993 28.9115C58.993 30.0056 58.1173 30.8767 57.021 30.8767C55.9247 30.8767 55.0558 30.0056 55.0558 28.9115C55.0558 27.8175 55.9269 26.935 57.021 26.935ZM57.021 30.3308C57.8034 30.3308 58.4448 29.6962 58.4448 28.9115C58.4448 28.1268 57.8034 27.4831 57.021 27.4831C56.2385 27.4831 55.6017 28.1359 55.6017 28.9115C55.6017 29.6871 56.2431 30.3308 57.021 30.3308Z" fill="white"/>
<path d="M60.5898 27.0328C60.5898 26.9782 60.6398 26.935 60.6944 26.935H60.8309L63.2078 29.6849H63.2123V27.0942C63.2123 27.0396 63.2555 26.9896 63.3169 26.9896H63.6672C63.7218 26.9896 63.7718 27.0396 63.7718 27.0942V30.7812C63.7718 30.8358 63.7218 30.879 63.6672 30.879H63.5239L61.147 28.054H61.1425V30.7221C61.1425 30.7766 61.0993 30.8267 61.0379 30.8267H60.6921C60.6375 30.8267 60.5875 30.7766 60.5875 30.7221V27.035L60.5898 27.0328Z" fill="white"/>
<path d="M65.4052 30.2695C65.4552 30.199 65.4984 30.1171 65.5484 30.0443C65.5985 29.9738 65.6735 29.9511 65.735 30.0011C65.7668 30.0284 66.1899 30.3787 66.6107 30.3787C66.9882 30.3787 67.2293 30.1489 67.2293 29.8692C67.2293 29.5394 66.945 29.3324 66.4014 29.1072C65.8419 28.8707 65.4052 28.5818 65.4052 27.9449C65.4052 27.5173 65.7327 26.9328 66.6038 26.9328C67.152 26.9328 67.5614 27.2171 67.616 27.2557C67.6592 27.283 67.7024 27.3604 67.6478 27.4423C67.6046 27.5082 67.5546 27.5856 67.5114 27.6515C67.4682 27.722 67.3954 27.7561 67.3203 27.7061C67.2816 27.6834 66.8995 27.4332 66.5811 27.4332C66.1216 27.4332 65.9624 27.7243 65.9624 27.9267C65.9624 28.2383 66.2035 28.4294 66.6584 28.6159C67.293 28.8729 67.8366 29.1754 67.8366 29.8419C67.8366 30.4105 67.3271 30.8768 66.6152 30.8768C65.9465 30.8768 65.5257 30.5265 65.437 30.4446C65.387 30.4014 65.3483 30.3627 65.4052 30.2695Z" fill="white"/>
<path d="M46.9392 17.0798C46.9392 19.2451 46.9255 21.4105 46.9505 23.5758C46.9551 24.033 46.8141 24.1558 46.3819 24.124C45.9338 24.0876 45.4812 24.1058 45.0308 24.1195C44.7897 24.1263 44.6806 24.033 44.6828 23.7942C44.6828 23.635 44.676 23.4758 44.676 23.3143C44.676 19.5067 44.6828 15.7014 44.6669 11.8939C44.6669 11.4231 44.5805 10.9409 44.4622 10.4814C44.2802 9.78085 43.7844 9.37826 43.0702 9.27136C42.2468 9.14626 41.4348 9.24861 40.6751 9.56477C39.879 9.89458 39.6857 10.6179 39.6834 11.398C39.6766 15.4376 39.6811 19.4771 39.6811 23.5167C39.6811 23.6327 39.672 23.751 39.6811 23.8647C39.7039 24.1172 39.5856 24.1945 39.3491 24.1854C38.8691 24.1672 38.3915 24.1558 37.9115 24.1627C37.6159 24.1672 37.4839 24.0126 37.4498 23.751C37.4202 23.5349 37.4089 23.3165 37.4089 23.1005C37.4066 19.4089 37.418 15.7196 37.3952 12.0281C37.393 11.4867 37.2929 10.9318 37.1473 10.4086C36.979 9.80587 36.5218 9.38508 35.9054 9.31912C35.2231 9.24861 34.5157 9.24406 33.8401 9.35097C33.0827 9.46924 32.6346 10.0288 32.4845 10.7725C32.4004 11.1956 32.3731 11.6369 32.3731 12.0713C32.364 15.9357 32.3617 19.8024 32.3776 23.6668C32.3776 24.0967 32.2593 24.2332 31.834 24.1809C31.4905 24.1376 31.138 24.1627 30.79 24.174C30.2168 24.1945 30.1395 24.1286 30.1395 23.5372C30.1395 22.2725 30.1395 21.0079 30.1395 19.7455C30.1395 16.8546 30.1326 13.9614 30.1463 11.0705C30.1463 10.6247 30.1963 10.1675 30.2919 9.73309C30.6194 8.24782 31.5542 7.31754 33.0327 7.03322C34.8546 6.68522 36.6469 6.72389 38.3073 7.7315C38.4415 7.81339 38.7258 7.7406 38.8941 7.6519C40.4772 6.81487 42.1331 6.55103 43.8708 7.02868C44.9171 7.31754 45.9179 7.70421 46.4865 8.74594C46.8254 9.36461 46.9392 10.0288 46.9414 10.718C46.946 12.8401 46.9414 14.9599 46.9414 17.0821" fill="white"/>
<path d="M10.323 10.741C10.323 13.8503 10.3276 16.9596 10.3208 20.0711C10.3185 21.1356 10.1775 22.191 9.43598 23.0075C9.04021 23.4442 8.52616 23.8559 7.98482 24.0584C6.35853 24.6611 4.69585 24.693 3.03999 24.0743C1.65935 23.558 0.904207 22.5504 0.738166 21.122C0.649459 20.3623 0.672205 19.5866 0.667656 18.8179C0.654008 16.9164 0.656283 15.0126 0.64491 13.1111C0.638087 12.1148 0.71997 11.1413 1.1726 10.227C1.55017 9.46274 2.12336 8.92823 2.91262 8.60752C4.18863 8.08893 5.46009 7.55896 6.72928 7.0199C7.55039 6.6719 7.9598 6.02821 7.97118 5.14342C7.9871 3.73321 7.99392 2.32528 7.98255 0.915077C7.98027 0.5648 8.06443 0.412407 8.43973 0.439701C8.87417 0.46927 9.31088 0.446525 9.74759 0.446525C10.3048 0.446525 10.3162 0.446525 10.3208 1.02425C10.3276 2.34575 10.323 3.66953 10.323 4.99102V10.7456M7.95298 9.18525C7.78694 9.23984 7.66411 9.27396 7.54811 9.32172C6.6383 9.70384 5.73304 10.0928 4.82095 10.4726C3.50627 11.0208 2.99223 11.785 2.98085 13.2248C2.97403 14.0391 2.95356 14.8511 2.95811 15.6654C2.96493 17.1324 2.95811 18.5995 3.01497 20.0643C3.04909 20.9787 3.48353 21.7406 4.40244 21.9704C5.03021 22.1273 5.72394 22.0841 6.38128 22.0272C6.94764 21.9772 7.46396 21.6815 7.65729 21.106C7.83015 20.5943 7.97118 20.0438 7.97573 19.507C8.00529 16.2681 7.99165 13.0269 7.98937 9.788C7.98937 9.60376 7.9689 9.4218 7.95526 9.18752" fill="white"/>
<path d="M28.4304 14.239C28.4304 16.1996 28.4372 18.158 28.4281 20.1186C28.4213 21.4697 28.1643 22.7343 26.961 23.5736C25.9034 24.3129 24.6774 24.4789 23.431 24.4721C22.4188 24.4653 21.4453 24.2333 20.556 23.7215C19.5142 23.1233 18.9956 22.1976 18.8842 21.0262C18.8455 20.6213 18.825 20.2142 18.825 19.8093C18.8205 15.8585 18.8228 11.9076 18.8228 7.95676C18.8228 7.91354 18.8228 7.87032 18.8228 7.82483C18.8296 7.09699 18.8296 7.09699 19.5415 7.09926C19.8463 7.09926 20.1511 7.10153 20.4559 7.122C20.9563 7.15612 21.0814 7.27895 21.1041 7.79071C21.1269 8.34115 21.1337 8.89386 21.1337 9.44429C21.136 12.7696 21.1269 16.0973 21.1451 19.4226C21.1451 19.832 21.2042 20.271 21.3566 20.6463C21.8888 21.9496 23.3172 22.4546 24.641 21.9565C25.7146 21.5516 26.1286 20.8351 26.1172 19.7251C26.0922 17.2573 26.1149 14.7872 26.1217 12.317C26.1263 10.7339 26.1468 9.15088 26.1377 7.56781C26.1377 7.21754 26.2537 7.10381 26.5903 7.11973C27.0247 7.1402 27.4637 7.1493 27.8959 7.11746C28.2871 7.09016 28.3917 7.23801 28.3895 7.6133C28.3758 9.82187 28.3826 12.0282 28.3826 14.2367H28.4304" fill="white"/>
<path d="M64.0578 0.398438C64.2307 1.08307 64.3967 1.73131 64.5559 2.37955C65.2405 5.15902 65.9252 7.93849 66.6076 10.718C66.9442 12.0872 67.2694 13.4588 67.6038 14.828C68.086 16.8069 68.5705 18.7857 69.0549 20.7645C69.3938 22.1497 69.7282 23.5372 70.0899 24.9178C70.1513 25.1521 70.3332 25.3636 70.4856 25.5638C70.6858 25.8322 70.7563 26.1165 70.679 26.4372C70.6312 26.6305 70.5197 26.8261 70.3105 26.8102C70.1581 26.7988 69.9807 26.6806 69.8761 26.5577C69.6645 26.3098 69.7055 26.005 69.7419 25.698C69.7737 25.441 69.7964 25.1566 69.7214 24.9178C68.7979 21.9291 67.8585 18.9449 66.9192 15.9607C66.3323 14.0911 65.7387 12.2237 65.1473 10.3563C64.2307 7.46539 63.3095 4.57446 62.3928 1.68354C62.2041 1.08762 62.2063 1.08762 62.7818 0.873813C63.198 0.719145 63.6143 0.564478 64.0555 0.398438" fill="white"/>
<path d="M72.7635 30.022C72.7044 30.3904 72.5406 30.6611 72.3086 30.693C72.0744 30.7271 71.7991 30.4882 71.7446 30.1562C71.7173 29.9947 71.7195 29.7991 71.79 29.6603C71.9652 29.31 71.9902 28.9575 71.9242 28.5822C71.5967 26.7467 71.2715 24.9111 70.9485 23.0756C70.464 20.3257 69.9795 17.5735 69.495 14.8236C69.1379 12.8015 68.7786 10.7795 68.4192 8.75744C68.144 7.21759 67.871 5.67774 67.5867 4.13788C67.5435 3.90361 67.6072 3.82627 67.8392 3.78988C68.2896 3.72165 68.7376 3.63067 69.1789 3.52149C69.42 3.46235 69.4791 3.55333 69.5019 3.76486C69.5997 4.69742 69.7089 5.6277 69.8089 6.56025C70.0432 8.73015 70.2729 10.9023 70.5118 13.0722C70.8256 15.9176 71.1486 18.7631 71.4648 21.6085C71.6513 23.2917 71.8264 24.9771 72.0084 26.6602C72.0835 27.3608 72.1517 28.0636 72.2495 28.7619C72.2791 28.9734 72.3996 29.1736 72.4861 29.376C72.577 29.5921 72.6748 29.8059 72.7681 30.0197" fill="white"/>
<path d="M55.5609 15.4516C55.5609 13.8822 55.5609 12.315 55.5609 10.7456C55.5609 8.63259 56.6663 7.32701 58.7589 7.01995C59.4458 6.91987 60.1463 6.8994 60.8423 6.85846C61.5224 6.81752 61.7908 7.00858 61.9955 7.66364C62.505 9.29675 63.01 10.9321 63.5172 12.5675C63.9858 14.0778 64.4725 15.5835 64.916 17.1029C65.4346 18.8725 65.2868 20.6398 64.7363 22.373C64.4907 23.1441 63.8584 23.6035 63.1487 23.8992C61.4678 24.602 59.7528 24.7157 58.006 24.0971C56.4229 23.5353 55.5927 22.4117 55.545 20.7649C55.4926 18.9953 55.5336 17.2212 55.5336 15.4493C55.5427 15.4493 55.5518 15.4493 55.5609 15.4493M62.7984 15.6381C62.7984 14.2598 62.8075 12.8791 62.7962 11.5008C62.7848 10.0633 62.1456 9.36953 60.7195 9.21032C60.5603 9.19212 60.4011 9.18302 60.2419 9.18302C58.636 9.18757 57.8172 9.92224 57.7945 11.5235C57.7558 14.2825 57.7672 17.0415 57.7945 19.8005C57.8036 20.749 58.1038 21.6088 59.116 21.9363C59.5459 22.075 60.0281 22.1091 60.4852 22.1C62.0274 22.0773 62.7825 21.3062 62.7962 19.7732C62.8075 18.3948 62.7984 17.0142 62.7984 15.6358" fill="white"/>
<path d="M54.965 6.77864C54.7967 7.52013 54.692 8.16837 54.4828 8.78022C54.4168 8.97356 54.0893 9.1396 53.8527 9.19646C53.4479 9.29199 53.0112 9.25332 52.6017 9.33975C51.5304 9.56266 51.0642 10.0926 50.9504 11.1821C50.9072 11.6006 50.8936 12.0237 50.8936 12.4422C50.889 15.7403 50.8913 19.0383 50.8936 22.3387C50.8936 22.8186 50.8981 23.2962 50.9163 23.7762C50.9254 24.0286 50.8504 24.1492 50.5751 24.1424C50.0383 24.1264 49.4993 24.1287 48.9625 24.1424C48.6964 24.1492 48.6054 24.04 48.6077 23.7807C48.6168 22.7344 48.6168 21.6882 48.6122 20.6441C48.6008 17.6372 48.5622 14.628 48.5895 11.6211C48.5963 10.8341 48.6986 10.0153 48.942 9.27379C49.3719 7.96822 50.4341 7.28131 51.7374 7.06295C52.761 6.89009 53.8118 6.87644 54.965 6.78091" fill="white"/>
<path d="M11.9786 16.9044C11.9786 14.8005 11.9103 12.692 11.9968 10.5926C12.0855 8.44089 13.366 7.18762 15.4995 6.96927C16.191 6.89876 16.8893 6.86919 17.5853 6.83962C18.1016 6.81915 18.2404 7.00339 18.1312 7.50606C18.0629 7.81767 17.9993 8.12928 17.9219 8.44089C17.7854 8.98905 17.624 9.12552 17.0531 9.18466C16.7505 9.2165 16.4435 9.22787 16.1432 9.27564C14.9832 9.46215 14.3304 10.1468 14.2622 11.3204C14.2144 12.1165 14.2395 12.9149 14.2417 13.7132C14.2463 16.9362 14.2554 20.1592 14.2599 23.38C14.2599 24.0714 14.1417 24.1806 13.4434 24.1829C12.0741 24.1874 11.9558 24.0669 11.9558 22.6976V16.9044H11.9786Z" fill="white"/>
</svg>
