<svg width="70" height="69" viewBox="0 0 70 69" fill="none" xmlns="http://www.w3.org/2000/svg">
<path d="M62.6187 10.8379H56.186V9.16545C56.1804 7.90471 55.677 6.69722 54.7855 5.80573C53.8941 4.91424 52.6866 4.41091 51.4258 4.40527H48.0808C46.8201 4.41091 45.6126 4.91424 44.7211 5.80573C43.8296 6.69722 43.3263 7.90471 43.3207 9.16545V40.8571H28.3111C28.0289 40.8555 27.7491 40.9096 27.4879 41.0163C27.2267 41.123 26.989 41.2802 26.7887 41.4789L17.59 50.6991V43.0013C17.59 42.4326 17.364 41.8872 16.9619 41.4851C16.5598 41.083 16.0144 40.8571 15.4457 40.8571H9.01306V15.1264H39.0322C39.6009 15.1264 40.1463 14.9005 40.5484 14.4984C40.9505 14.0962 41.1764 13.5509 41.1764 12.9822C41.1764 12.4135 40.9505 11.8681 40.5484 11.466C40.1463 11.0639 39.6009 10.8379 39.0322 10.8379H6.86883C6.30015 10.8379 5.75476 11.0639 5.35264 11.466C4.95052 11.8681 4.72461 12.4135 4.72461 12.9822V43.0013C4.72461 43.57 4.95052 44.1154 5.35264 44.5175C5.75476 44.9196 6.30015 45.1455 6.86883 45.1455H13.3015V55.8667C13.3036 56.29 13.431 56.7032 13.6676 57.0543C13.9042 57.4053 14.2394 57.6785 14.6309 57.8394C14.8854 57.9594 15.1645 58.0181 15.4457 58.0109C15.7279 58.0125 16.0077 57.9584 16.2689 57.8517C16.5302 57.745 16.7678 57.5878 16.9681 57.3891L29.1902 45.1455H43.3207V51.5782C43.3006 51.7061 43.3006 51.8363 43.3207 51.9642C43.3103 52.0998 43.3103 52.236 43.3207 52.3716L47.6091 63.0927C47.7672 63.4927 48.0419 63.8358 48.3975 64.0777C48.7531 64.3195 49.1732 64.4488 49.6032 64.4488C50.0333 64.4488 50.4534 64.3195 50.809 64.0777C51.1646 63.8358 51.4393 63.4927 51.5974 63.0927L55.8858 52.3716C55.8978 52.236 55.8978 52.0997 55.8858 51.9642C55.9983 51.8457 56.0989 51.7164 56.186 51.5782V45.1455H62.6187C63.1874 45.1455 63.7328 44.9196 64.1349 44.5175C64.537 44.1154 64.7629 43.57 64.7629 43.0013V12.9822C64.7629 12.4135 64.537 11.8681 64.1349 11.466C63.7328 11.0639 63.1874 10.8379 62.6187 10.8379ZM48.0808 8.69372H51.4258C51.5509 8.69372 51.6709 8.74342 51.7594 8.83189C51.8479 8.92036 51.8976 9.04034 51.8976 9.16545V12.9822H47.6091V9.16545C47.6091 9.04034 47.6588 8.92036 47.7473 8.83189C47.8357 8.74342 47.9557 8.69372 48.0808 8.69372ZM48.6383 53.7224H50.7826L49.7533 56.5314L48.6383 53.7224ZM60.4745 40.8571H54.0418C53.4731 40.8571 52.9277 41.083 52.5256 41.4851C52.1235 41.8872 51.8976 42.4326 51.8976 43.0013V49.434H47.6091V17.2706H51.8976V36.5686C51.8976 37.1373 52.1235 37.6827 52.5256 38.0848C52.9277 38.487 53.4731 38.7129 54.0418 38.7129C54.6105 38.7129 55.1559 38.487 55.558 38.0848C55.9601 37.6827 56.186 37.1373 56.186 36.5686V15.1264H60.4745V40.8571Z" fill="white"/>
<path d="M36.8877 19.415H15.4455C14.8768 19.415 14.3314 19.6409 13.9293 20.0431C13.5272 20.4452 13.3013 20.9906 13.3013 21.5593C13.3013 22.1279 13.5272 22.6733 13.9293 23.0755C14.3314 23.4776 14.8768 23.7035 15.4455 23.7035H36.8877C37.4564 23.7035 38.0018 23.4776 38.4039 23.0755C38.8061 22.6733 39.032 22.1279 39.032 21.5593C39.032 20.9906 38.8061 20.4452 38.4039 20.0431C38.0018 19.6409 37.4564 19.415 36.8877 19.415Z" fill="white"/>
<path d="M36.8877 25.8477H15.4455C14.8768 25.8477 14.3314 26.0736 13.9293 26.4757C13.5272 26.8778 13.3013 27.4232 13.3013 27.9919C13.3013 28.5606 13.5272 29.106 13.9293 29.5081C14.3314 29.9102 14.8768 30.1361 15.4455 30.1361H36.8877C37.4564 30.1361 38.0018 29.9102 38.4039 29.5081C38.8061 29.106 39.032 28.5606 39.032 27.9919C39.032 27.4232 38.8061 26.8778 38.4039 26.4757C38.0018 26.0736 37.4564 25.8477 36.8877 25.8477Z" fill="white"/>
<path d="M36.8877 32.2803H15.4455C14.8768 32.2803 14.3314 32.5062 13.9293 32.9083C13.5272 33.3104 13.3013 33.8558 13.3013 34.4245C13.3013 34.9932 13.5272 35.5386 13.9293 35.9407C14.3314 36.3428 14.8768 36.5687 15.4455 36.5687H36.8877C37.4564 36.5687 38.0018 36.3428 38.4039 35.9407C38.8061 35.5386 39.032 34.9932 39.032 34.4245C39.032 33.8558 38.8061 33.3104 38.4039 32.9083C38.0018 32.5062 37.4564 32.2803 36.8877 32.2803Z" fill="white"/>
</svg>
