<svg width="70" height="69" viewBox="0 0 70 69" fill="none" xmlns="http://www.w3.org/2000/svg">
<path d="M57.4847 12.9824H49.744C49.1754 12.9824 48.63 13.2083 48.2279 13.6105C47.8257 14.0126 47.5998 14.558 47.5998 15.1267C47.5998 15.6953 47.8257 16.2407 48.2279 16.6429C48.63 17.045 49.1754 17.2709 49.744 17.2709H57.4847C57.6002 17.2764 57.7135 17.3046 57.818 17.3539C57.9226 17.4033 58.0164 17.4728 58.0941 17.5584C58.1718 17.6441 58.2318 17.7442 58.2707 17.8531C58.3097 17.9619 58.3267 18.0774 58.3209 18.1929V48.5122C58.3267 48.6277 58.3097 48.7432 58.2707 48.8521C58.2318 48.961 58.1718 49.0611 58.0941 49.1467C58.0164 49.2324 57.9226 49.3018 57.818 49.3512C57.7135 49.4005 57.6002 49.4288 57.4847 49.4342H45.4556V45.1458C45.4556 44.5771 45.2297 44.0317 44.8276 43.6296C44.4254 43.2275 43.8801 43.0016 43.3114 43.0016H29.9314L24.2278 22.9316L32.5903 12.6179V24.3039C31.7727 24.776 31.1337 25.5045 30.7725 26.3767C30.4112 27.2489 30.3478 28.2159 30.5922 29.1278C30.8365 30.0396 31.3749 30.8454 32.1238 31.4201C32.8728 31.9948 33.7904 32.3063 34.7345 32.3063C35.6785 32.3063 36.5962 31.9948 37.3451 31.4201C38.0941 30.8454 38.6325 30.0396 38.8768 29.1278C39.1211 28.2159 39.0578 27.2489 38.6965 26.3767C38.3352 25.5045 37.6963 24.776 36.8787 24.3039V12.6179L45.2412 22.9316L40.9527 38.1342C40.852 38.4114 40.8096 38.7065 40.8281 39.0009C40.8467 39.2953 40.9257 39.5827 41.0604 39.8452C41.1951 40.1076 41.3825 40.3394 41.6108 40.5262C41.8392 40.7129 42.1036 40.8505 42.3876 40.9303C42.6716 41.0102 42.9689 41.0306 43.2612 40.9903C43.5534 40.95 43.8341 40.8498 44.0859 40.6961C44.3376 40.5423 44.5549 40.3382 44.7242 40.0967C44.8934 39.8551 45.0111 39.5812 45.0696 39.2921L49.744 23.0174C49.8385 22.6883 49.8527 22.3413 49.7855 22.0056C49.7184 21.6699 49.5718 21.3551 49.3581 21.0876L36.4927 5.1989C36.2918 4.94846 36.0372 4.74635 35.7478 4.60747C35.4583 4.46859 35.1413 4.39648 34.8202 4.39648C34.4992 4.39648 34.1822 4.46859 33.8927 4.60747C33.6033 4.74635 33.3487 4.94846 33.1477 5.1989L20.2824 21.0876C20.0687 21.3551 19.9221 21.6699 19.8549 22.0056C19.7878 22.3413 19.802 22.6883 19.8964 23.0174L25.5786 43.1302C25.1362 43.2542 24.7453 43.5169 24.4635 43.8798C24.1817 44.2427 24.0239 44.6865 24.0134 45.1458V49.4342H11.9843C11.8688 49.4288 11.7555 49.4005 11.6509 49.3512C11.5463 49.3018 11.4525 49.2324 11.3749 49.1467C11.2972 49.0611 11.2372 48.961 11.1982 48.8521C11.1593 48.7432 11.1422 48.6277 11.148 48.5122V17.9999C11.1645 17.7932 11.2612 17.6012 11.4175 17.4649C11.5738 17.3287 11.7772 17.259 11.9843 17.2709H19.7249C20.2936 17.2709 20.839 17.045 21.2411 16.6429C21.6432 16.2407 21.8691 15.6953 21.8691 15.1267C21.8691 14.558 21.6432 14.0126 21.2411 13.6105C20.839 13.2083 20.2936 12.9824 19.7249 12.9824H11.9843C10.6401 12.971 9.34623 13.4925 8.38576 14.4329C7.4253 15.3733 6.87652 16.6559 6.85955 17.9999V48.5122C6.8539 49.1909 6.98197 49.8639 7.23645 50.4931C7.49094 51.1222 7.86685 51.695 8.34273 52.1789C8.8186 52.6627 9.38512 53.0481 10.0099 53.313C10.6348 53.5779 11.3056 53.7171 11.9843 53.7227H32.5903V60.1554H21.8691C21.3004 60.1554 20.7551 60.3813 20.3529 60.7834C19.9508 61.1855 19.7249 61.7309 19.7249 62.2996C19.7249 62.8683 19.9508 63.4137 20.3529 63.8158C20.7551 64.2179 21.3004 64.4438 21.8691 64.4438H47.5998C48.1685 64.4438 48.7139 64.2179 49.116 63.8158C49.5181 63.4137 49.744 62.8683 49.744 62.2996C49.744 61.7309 49.5181 61.1855 49.116 60.7834C48.7139 60.3813 48.1685 60.1554 47.5998 60.1554H36.8787V53.7227H57.4847C58.1633 53.7171 58.8342 53.5779 59.459 53.313C60.0838 53.0481 60.6503 52.6627 61.1262 52.1789C61.6021 51.695 61.978 51.1222 62.2325 50.4931C62.487 49.8639 62.6151 49.1909 62.6094 48.5122V18.1929C62.6151 17.5143 62.487 16.8412 62.2325 16.2121C61.978 15.5829 61.6021 15.0101 61.1262 14.5263C60.6503 14.0424 60.0838 13.657 59.459 13.3922C58.8342 13.1273 58.1633 12.988 57.4847 12.9824ZM28.3018 49.4342V47.29H41.1671V49.4342H28.3018Z" fill="white"/>
</svg>
