<svg width="70" height="69" viewBox="0 0 70 69" fill="none" xmlns="http://www.w3.org/2000/svg">
<path d="M62.628 25.0116C62.6852 19.607 60.5943 14.4008 56.815 10.537C53.0356 6.67317 47.8768 4.46785 42.4723 4.40564C40.9148 4.39646 39.3613 4.56188 37.8407 4.89881C33.8527 5.77575 30.2217 7.83467 27.4216 10.8068C24.6216 13.7789 22.7827 17.5262 22.145 21.5594H17.5992C17.0367 21.5618 16.4977 21.7851 16.0983 22.1813C15.8957 22.3798 15.7345 22.6167 15.6241 22.878C15.5137 23.1393 15.4562 23.42 15.455 23.7037V47.2901C15.4448 47.4401 15.4448 47.5905 15.455 47.7404L10.459 53.9372C9.68675 54.8808 9.1986 56.0245 9.05143 57.2348C8.90426 58.4452 9.10412 59.6725 9.62773 60.7737C10.1513 61.8748 10.9771 62.8045 12.0088 63.4543C13.0406 64.1041 14.2357 64.4473 15.455 64.4439H16.0983C17.7794 64.2589 19.3201 63.4193 20.3867 62.1067L35.2677 43.9451C37.4206 44.7253 39.6893 45.1385 41.9791 45.1673H42.215C43.3072 45.1641 44.3973 45.0709 45.4742 44.8886V51.5786H32.6088C32.0401 51.5786 31.4947 51.8045 31.0926 52.2066C30.6905 52.6087 30.4646 53.1541 30.4646 53.7228C30.4646 54.2915 30.6905 54.8369 31.0926 55.239C31.4947 55.6411 32.0401 55.867 32.6088 55.867H47.6184C48.1871 55.867 48.7325 55.6411 49.1346 55.239C49.5367 54.8369 49.7626 54.2915 49.7626 53.7228V43.7307C52.2716 42.7543 54.5659 41.2976 56.5169 39.4423C58.4417 37.5624 59.9732 35.3184 61.0223 32.8409C62.0715 30.3635 62.6173 27.7021 62.628 25.0116ZM19.7435 25.8479H21.8877C22.0705 29.4481 23.2103 32.9344 25.1898 35.9472L19.7435 42.6157V25.8479ZM17.1061 59.3621C16.928 59.5846 16.7073 59.7694 16.4569 59.9056C16.2066 60.0418 15.9316 60.1268 15.648 60.1555C15.3675 60.1801 15.0849 60.1492 14.8163 60.0646C14.5477 59.98 14.2985 59.8433 14.0827 59.6623C13.6462 59.3038 13.3688 58.7875 13.3108 58.2257C13.2552 57.6621 13.4247 57.0994 13.7825 56.6604L27.913 39.5066L31.2365 42.2298L17.1061 59.3621ZM42.0649 40.8575C39.4744 40.834 36.9281 40.1842 34.6431 38.9636C32.3581 37.743 30.4023 35.9878 28.9425 33.8476C27.4828 31.7075 26.5624 29.246 26.2599 26.6732C25.9574 24.1003 26.2818 21.4925 27.2054 19.0721C27.5382 19.2873 27.9241 19.4061 28.3204 19.4152H30.4646C31.0333 19.4152 31.5787 19.1893 31.9808 18.7872C32.3829 18.3851 32.6088 17.8397 32.6088 17.271C32.6088 16.7023 32.3829 16.1569 31.9808 15.7548C31.5787 15.3527 31.0333 15.1268 30.4646 15.1268H29.4354C30.4378 13.7551 31.6541 12.5533 33.0377 11.5673C34.7639 10.3652 36.7089 9.51289 38.7628 9.0586C39.9034 8.80807 41.0685 8.6858 42.2364 8.69408H42.4294C45.5651 8.7248 48.6234 9.67161 51.228 11.418C53.8325 13.1644 55.8697 15.6342 57.0887 18.5234C58.3077 21.4126 58.6555 24.5952 58.0891 27.6795C57.5227 30.7638 56.067 33.6152 53.901 35.8829C53.7217 35.4254 53.3907 35.0435 52.9635 34.8009C52.5362 34.5583 52.0386 34.4698 51.5539 34.5501C51.0693 34.6305 50.6269 34.8749 50.3008 35.2424C49.9747 35.6099 49.7847 36.0782 49.7626 36.569V38.7132C49.7529 38.7987 49.7529 38.885 49.7626 38.9705C47.3877 40.2144 44.7458 40.862 42.0649 40.8575Z" fill="white"/>
<path d="M51.9056 19.4144C52.4743 19.4144 53.0197 19.1885 53.4218 18.7864C53.824 18.3843 54.0499 17.8389 54.0499 17.2702C54.0499 16.7015 53.824 16.1561 53.4218 15.754C53.0197 15.3519 52.4743 15.126 51.9056 15.126H49.7614C49.1927 15.126 48.6473 15.3519 48.2452 15.754C47.8431 16.1561 47.6172 16.7015 47.6172 17.2702C47.6172 17.8389 47.8431 18.3843 48.2452 18.7864C48.6473 19.1885 49.1927 19.4144 49.7614 19.4144H51.9056Z" fill="white"/>
<path d="M51.9059 23.7031C51.3373 23.7031 50.7919 23.929 50.3897 24.3312C49.9876 24.7333 49.7617 25.2787 49.7617 25.8473V27.9916C49.7617 28.5603 49.9876 29.1056 50.3897 29.5078C50.7919 29.9099 51.3373 30.1358 51.9059 30.1358C52.4746 30.1358 53.02 29.9099 53.4221 29.5078C53.8243 29.1056 54.0502 28.5603 54.0502 27.9916V25.8473C54.0502 25.2787 53.8243 24.7333 53.4221 24.3312C53.02 23.929 52.4746 23.7031 51.9059 23.7031Z" fill="white"/>
<path d="M41.1844 15.126H39.0402C38.4715 15.126 37.9261 15.3519 37.524 15.754C37.1219 16.1561 36.896 16.7015 36.896 17.2702C36.896 17.8389 37.1219 18.3843 37.524 18.7864C37.9261 19.1885 38.4715 19.4144 39.0402 19.4144H41.1844C41.7531 19.4144 42.2985 19.1885 42.7006 18.7864C43.1028 18.3843 43.3287 17.8389 43.3287 17.2702C43.3287 16.7015 43.1028 16.1561 42.7006 15.754C42.2985 15.3519 41.7531 15.126 41.1844 15.126Z" fill="white"/>
</svg>
