<svg width="141" height="65" viewBox="0 0 141 65" fill="none" xmlns="http://www.w3.org/2000/svg">
<rect x="0.333008" y="0.44873" width="139.773" height="64" rx="10.6667" fill="#F5C350" fill-opacity="0.1"/>
<path fill-rule="evenodd" clip-rule="evenodd" d="M50.88 19.1157C50.88 19.1157 48.488 19.1264 46.7707 21.2037H46.772C45.2427 23.0517 45.632 24.6331 45.632 24.6331C45.632 24.6331 47.7067 24.9637 49.528 22.9531C51.2347 21.0704 50.88 19.1157 50.88 19.1157ZM47.22 25.6224C46.6573 25.8304 46.196 26.0011 45.8493 26.0011C45.4173 26.0011 44.896 25.8171 44.2907 25.6037C43.4507 25.3077 42.4507 24.9544 41.3 24.9544C38.252 24.9544 35 27.4557 35 32.2291C35 37.0811 38.8387 43.1157 41.88 43.1157C42.352 43.1157 42.9373 42.9211 43.5867 42.7051C44.3947 42.4384 45.3013 42.1357 46.212 42.1357C47.0267 42.1357 47.7347 42.3784 48.4333 42.6184C49.1133 42.8517 49.7853 43.0811 50.54 43.0811C53.868 43.0811 56.3333 36.7184 56.3333 36.7184C56.3333 36.7184 52.8093 35.4651 52.8093 31.8357C52.8093 28.6144 55.6387 27.2864 55.6387 27.2864C55.6387 27.2864 54.1907 24.8864 50.5107 24.8864C49.2107 24.8864 48.0933 25.2997 47.22 25.6224Z" fill="#F5C350"/>
<path d="M73.8961 39.1157V27.7521H76.1082V39.1157H73.8961ZM75.0132 25.9987C74.6285 25.9987 74.2981 25.8705 74.0219 25.614C73.7506 25.3526 73.615 25.0419 73.615 24.6818C73.615 24.3169 73.7506 24.0061 74.0219 23.7497C74.2981 23.4883 74.6285 23.3576 75.0132 23.3576C75.3979 23.3576 75.7259 23.4883 75.9972 23.7497C76.2734 24.0061 76.4115 24.3169 76.4115 24.6818C76.4115 25.0419 76.2734 25.3526 75.9972 25.614C75.7259 25.8705 75.3979 25.9987 75.0132 25.9987ZM93.0631 31.54C93.0631 33.1577 92.7671 34.5486 92.1753 35.7126C91.5834 36.8716 90.7721 37.7643 89.7413 38.3907C88.7154 39.0121 87.5489 39.3229 86.2419 39.3229C84.93 39.3229 83.7586 39.0121 82.7278 38.3907C81.7019 37.7643 80.893 36.8691 80.3012 35.7052C79.7093 34.5412 79.4134 33.1528 79.4134 31.54C79.4134 29.9222 79.7093 28.5338 80.3012 27.3748C80.893 26.2108 81.7019 25.3181 82.7278 24.6966C83.7586 24.0702 84.93 23.7571 86.2419 23.7571C87.5489 23.7571 88.7154 24.0702 89.7413 24.6966C90.7721 25.3181 91.5834 26.2108 92.1753 27.3748C92.7671 28.5338 93.0631 29.9222 93.0631 31.54ZM90.7992 31.54C90.7992 30.3069 90.5995 29.2687 90.2 28.4253C89.8054 27.577 89.2628 26.9358 88.5723 26.5018C87.8868 26.0628 87.11 25.8433 86.2419 25.8433C85.3689 25.8433 84.5896 26.0628 83.9041 26.5018C83.2185 26.9358 82.676 27.577 82.2765 28.4253C81.8819 29.2687 81.6846 30.3069 81.6846 31.54C81.6846 32.773 81.8819 33.8137 82.2765 34.662C82.676 35.5054 83.2185 36.1466 83.9041 36.5855C84.5896 37.0196 85.3689 37.2366 86.2419 37.2366C87.11 37.2366 87.8868 37.0196 88.5723 36.5855C89.2628 36.1466 89.8054 35.5054 90.2 34.662C90.5995 33.8137 90.7992 32.773 90.7992 31.54ZM104.817 27.9444C104.738 27.2441 104.413 26.7015 103.84 26.3168C103.268 25.9272 102.548 25.7324 101.68 25.7324C101.059 25.7324 100.521 25.831 100.067 26.0283C99.6136 26.2207 99.261 26.487 99.0094 26.8273C98.7628 27.1627 98.6395 27.5449 98.6395 27.974C98.6395 28.3341 98.7234 28.6448 98.891 28.9062C99.0637 29.1676 99.2881 29.3871 99.5643 29.5646C99.8454 29.7373 100.146 29.8828 100.467 30.0011C100.787 30.1146 101.096 30.2083 101.392 30.2823L102.871 30.667C103.355 30.7853 103.85 30.9456 104.358 31.1479C104.866 31.3501 105.337 31.6164 105.771 31.9469C106.205 32.2773 106.556 32.6867 106.822 33.175C107.093 33.6632 107.229 34.2477 107.229 34.9283C107.229 35.7865 107.007 36.5485 106.563 37.2144C106.124 37.8802 105.485 38.4055 104.647 38.7902C103.813 39.1749 102.805 39.3673 101.621 39.3673C100.487 39.3673 99.5051 39.1872 98.6765 38.8272C97.8479 38.4671 97.1993 37.9567 96.7308 37.2958C96.2622 36.6299 96.0033 35.8408 95.954 34.9283H98.2474C98.2918 35.4758 98.4693 35.932 98.7801 36.297C99.0957 36.6571 99.4977 36.9259 99.986 37.1034C100.479 37.276 101.019 37.3623 101.606 37.3623C102.252 37.3623 102.827 37.2612 103.33 37.059C103.838 36.8519 104.237 36.5658 104.528 36.2008C104.819 35.8309 104.965 35.3994 104.965 34.9061C104.965 34.4573 104.837 34.0899 104.58 33.8038C104.329 33.5178 103.986 33.281 103.552 33.0936C103.123 32.9062 102.637 32.7409 102.094 32.5979L100.304 32.1096C99.0908 31.7792 98.129 31.2934 97.4188 30.6522C96.7135 30.011 96.3609 29.1627 96.3609 28.1072C96.3609 27.2342 96.5976 26.4722 97.0711 25.8212C97.5446 25.1701 98.1857 24.6646 98.9946 24.3045C99.8035 23.9395 100.716 23.7571 101.732 23.7571C102.758 23.7571 103.663 23.9371 104.447 24.2971C105.236 24.6572 105.858 25.1529 106.311 25.7842C106.765 26.4105 107.002 27.1306 107.022 27.9444H104.817Z" fill="#F5C350"/>
</svg>
